<?xml version="1.0" encoding="UTF-8" standalone="no"?>
<!-- Created with Inkscape (http://www.inkscape.org/) -->

<svg
   xmlns:dc="http://purl.org/dc/elements/1.1/"
   xmlns:cc="http://creativecommons.org/ns#"
   xmlns:rdf="http://www.w3.org/1999/02/22-rdf-syntax-ns#"
   xmlns:svg="http://www.w3.org/2000/svg"
   xmlns="http://www.w3.org/2000/svg"
   xmlns:xlink="http://www.w3.org/1999/xlink"
   xmlns:sodipodi="http://sodipodi.sourceforge.net/DTD/sodipodi-0.dtd"
   xmlns:inkscape="http://www.inkscape.org/namespaces/inkscape"
   width="441.96112mm"
   height="112.9954mm"
   viewBox="0 0 441.96112 112.9954"
   version="1.1"
   id="svg8"
   sodipodi:docname="Republic of Singapore Air Force logo.svg"
   inkscape:version="0.92.5 (2060ec1f9f, 2020-04-08)"
   inkscape:export-filename="C:\Users\Edmund Goh\Desktop\RSAF Corporate Logo.png"
   inkscape:export-xdpi="90"
   inkscape:export-ydpi="90">
  <defs
     id="defs2">
    <linearGradient
       id="linearGradient1590"
       inkscape:collect="always">
      <stop
         id="stop1580"
         offset="0"
         style="stop-color:#044796;stop-opacity:1" />
      <stop
         style="stop-color:#2f8cc8;stop-opacity:1"
         offset="0.1898064"
         id="stop1582" />
      <stop
         id="stop1584"
         offset="0.39992043"
         style="stop-color:#4eb4e5;stop-opacity:1" />
      <stop
         style="stop-color:#b0ddf4;stop-opacity:0.669"
         offset="0.63996929"
         id="stop1670" />
      <stop
         style="stop-color:#ffffff;stop-opacity:0"
         offset="0.78398156"
         id="stop1630" />
      <stop
         id="stop1588"
         offset="1"
         style="stop-color:#ffffff;stop-opacity:0" />
    </linearGradient>
    <linearGradient
       gradientTransform="translate(-1.4e-6,56.885488)"
       inkscape:collect="always"
       xlink:href="#linearGradient1590"
       id="linearGradient1524-8"
       gradientUnits="userSpaceOnUse"
       x1="166.06854"
       y1="293.96817"
       x2="-24.653494"
       y2="293.96817" />
    <linearGradient
       inkscape:collect="always"
       xlink:href="#linearGradient1520-3-4"
       id="linearGradient1524"
       gradientUnits="userSpaceOnUse"
       x1="165.81815"
       y1="256.68301"
       x2="-117.47623"
       y2="255.30009"
       gradientTransform="translate(9.3750006e-7,56.88541)" />
    <linearGradient
       inkscape:collect="always"
       id="linearGradient1520-3-4">
      <stop
         style="stop-color:#044796;stop-opacity:1"
         offset="0"
         id="stop1516" />
      <stop
         id="stop1526"
         offset="0.12757185"
         style="stop-color:#2f8cc8;stop-opacity:1" />
      <stop
         style="stop-color:#5cbdeb;stop-opacity:1"
         offset="0.31332982"
         id="stop1027" />
      <stop
         style="stop-color:#abdef4;stop-opacity:1"
         offset="0.49616596"
         id="stop1548" />
      <stop
         style="stop-color:#e3f6fd;stop-opacity:1"
         offset="0.79846638"
         id="stop1528" />
      <stop
         style="stop-color:#ffffff;stop-opacity:1"
         offset="1"
         id="stop1518" />
    </linearGradient>
  </defs>
  <sodipodi:namedview
     id="base"
     pagecolor="#ffffff"
     bordercolor="#666666"
     borderopacity="1.0"
     inkscape:pageopacity="0.0"
     inkscape:pageshadow="2"
     inkscape:zoom="1.0566305"
     inkscape:cx="735.82963"
     inkscape:cy="213.53461"
     inkscape:document-units="mm"
     inkscape:current-layer="layer1"
     showgrid="false"
     inkscape:window-width="1920"
     inkscape:window-height="1017"
     inkscape:window-x="-8"
     inkscape:window-y="-8"
     inkscape:window-maximized="1"
     inkscape:snap-bbox="true"
     inkscape:bbox-paths="true"
     inkscape:bbox-nodes="true"
     inkscape:snap-bbox-edge-midpoints="true"
     inkscape:snap-bbox-midpoints="true"
     inkscape:object-paths="true"
     inkscape:snap-intersection-paths="true"
     inkscape:snap-smooth-nodes="true"
     inkscape:snap-midpoints="true"
     inkscape:snap-object-midpoints="true"
     inkscape:snap-center="true"
     inkscape:snap-text-baseline="true"
     inkscape:snap-page="true"
     showguides="true"
     inkscape:guide-bbox="true"
     inkscape:snap-global="false"
     fit-margin-top="0"
     fit-margin-left="0"
     fit-margin-right="0"
     fit-margin-bottom="0" />
  <metadata
     id="metadata5">
    <rdf:RDF>
      <cc:Work
         rdf:about="">
        <dc:format>image/svg+xml</dc:format>
        <dc:type
           rdf:resource="http://purl.org/dc/dcmitype/StillImage" />
        <dc:title />
      </cc:Work>
    </rdf:RDF>
  </metadata>
  <g
     inkscape:label="Layer 1"
     inkscape:groupmode="layer"
     id="layer1"
     style="display:inline;opacity:1"
     transform="translate(241.20723,-264.48334)"
     sodipodi:insensitive="true">
    <rect
       style="opacity:1;fill:#ffffff;fill-opacity:1;stroke:none;stroke-width:0.18884461;stroke-linecap:butt;stroke-linejoin:miter;stroke-miterlimit:4;stroke-dasharray:none;stroke-dashoffset:1.71490002;stroke-opacity:1;paint-order:fill markers stroke"
       id="rect897"
       width="441.96112"
       height="112.9954"
       x="-241.20723"
       y="264.48334" />
    <path
       style="display:inline;opacity:1;fill:url(#linearGradient1524-8);fill-opacity:1;stroke:none;stroke-width:0.2;stroke-linecap:butt;stroke-linejoin:miter;stroke-miterlimit:4;stroke-dasharray:none;stroke-dashoffset:1.71490002;stroke-opacity:1;paint-order:fill markers stroke"
       d="M 31.651939,311.32518 187.67331,311.23104 16.893874,368.28266 Z"
       id="rect1464-9-8"
       inkscape:connector-curvature="0"
       sodipodi:nodetypes="cccc" />
    <g
       id="g197">
      <path
         inkscape:connector-curvature="0"
         id="rect826-0-1-4"
         d="m 70.58525,294.78019 c -4.299771,0 -6.589501,3.62428 -7.761288,7.76128 l -3.926893,13.86479 c -1.171787,4.137 1.055979,7.76128 5.355749,7.76128 h 18.021644 l 1.351333,-4.7718 H 71.674063 c -0.935726,0 -1.944291,-0.78846 -1.689285,-1.68879 l 4.663784,-16.46617 c 0.255005,-0.90033 0.753559,-1.68879 1.689311,-1.68879 h 12.908254 l 1.330669,-4.69791 c -0.324565,-0.0472 -0.662173,-0.0739 -1.015445,-0.0739 z"
         style="display:inline;opacity:1;fill:#024999;fill-opacity:1;stroke:none;stroke-width:0.79374999;stroke-linecap:butt;stroke-linejoin:miter;stroke-miterlimit:4;stroke-dasharray:none;stroke-dashoffset:1.71490002;stroke-opacity:1;paint-order:fill markers stroke" />
      <path
         sodipodi:nodetypes="scccccccccccss"
         inkscape:connector-curvature="0"
         id="rect826-0-0-7"
         d="m -29.800353,294.78019 c -4.299751,0 -5.67637,1.40168 -6.84816,5.53868 l -6.75463,23.84867 h 11.331329 l 3.291901,-11.62255 h 13.869289 l 1.739749,-6.14226 h -13.86944 l 1.940452,-6.85074 h 11.97756 1.89188 l 1.3425489,-4.74028 c -0.2123599,-0.0192 -0.4289009,-0.0315 -0.6526689,-0.0315 z"
         style="display:inline;opacity:1;fill:#024999;fill-opacity:1;stroke:none;stroke-width:0.79374999;stroke-linecap:butt;stroke-linejoin:miter;stroke-miterlimit:4;stroke-dasharray:none;stroke-dashoffset:1.71490002;stroke-opacity:1;paint-order:fill markers stroke" />
      <path
         inkscape:connector-curvature="0"
         id="rect826-0-1-4-4-6"
         d="m -119.26725,294.78019 -20.78891,29.38735 h 3.80959 2.3244 l 5.18057,-7.32306 h 14.15469 l 0.33228,1.78438 c 0.41937,2.25276 1.0313,5.53868 6.19858,5.53868 h 6.05183 l -5.47047,-29.38735 h -5.65908 z m 1.73168,6.22287 2.14871,11.54194 h -10.31359 z"
         style="display:inline;opacity:1;fill:#024999;fill-opacity:1;stroke:none;stroke-width:0.79374999;stroke-linecap:butt;stroke-linejoin:miter;stroke-miterlimit:4;stroke-dasharray:none;stroke-dashoffset:1.71490002;stroke-opacity:1;paint-order:fill markers stroke" />
      <path
         sodipodi:nodetypes="sccccccccccccccss"
         inkscape:connector-curvature="0"
         id="rect826-0-8-54"
         d="m 98.140678,294.78019 c -4.299744,-5.3e-4 -5.227135,2.64943 -6.398922,6.78643 l -6.401329,22.60092 H 110.7766 l 1.35133,-4.7718 H 98.147901 l 1.940449,-6.85074 h 11.97756 2.00247 l 1.73943,-6.14227 h -13.9795 l 1.94045,-6.85074 h 11.97703 2.00247 l 1.35144,-4.7718 c -0.68093,0 -1.29231,0.003 -1.98337,0.003 z"
         style="display:inline;opacity:1;fill:#024999;fill-opacity:1;stroke:none;stroke-width:0.79374999;stroke-linecap:butt;stroke-linejoin:miter;stroke-miterlimit:4;stroke-dasharray:none;stroke-dashoffset:1.71490002;stroke-opacity:1;paint-order:fill markers stroke" />
      <path
         id="rect826-0-04"
         d="m -0.67241308,294.78019 c -4.29976002,0 -6.58949002,3.62428 -7.76128002,7.76128 l -3.9269009,13.86479 c -1.171789,4.137 1.05599,7.76128 5.3557489,7.76128 H 11.971257 c 4.299749,0 6.589501,-3.62428 7.76129,-7.76128 l 3.92689,-13.86479 c 1.17179,-4.137 -1.055999,-7.76128 -5.355751,-7.76128 z m 5.87767888,4.7718 h 5.5516012 c 0.935739,0 1.944299,0.78847 1.689299,1.68879 l -4.6638003,16.46618 c -0.2550001,0.90032 -0.7530386,1.68878 -1.6887798,1.68878 H 0.54198692 c -0.935752,0 -1.94431102,-0.78846 -1.68931102,-1.68878 l 4.6637995,-16.46618 c 0.2550001,-0.90032 0.7530412,-1.68879 1.6887904,-1.68879 z"
         style="display:inline;opacity:1;fill:#024999;fill-opacity:1;stroke:none;stroke-width:0.79374999;stroke-linecap:butt;stroke-linejoin:miter;stroke-miterlimit:4;stroke-dasharray:none;stroke-dashoffset:1.71490002;stroke-opacity:1;paint-order:fill markers stroke"
         inkscape:connector-curvature="0" />
      <path
         inkscape:connector-curvature="0"
         id="rect826-0-85-5"
         d="m -78.657835,294.78019 -4.42609,15.62643 -0.298169,1.05369 -3.599256,12.70723 h 3.925336 7.300838 l 3.599273,-12.70723 h 2.869589 c 0.404741,1.38266 1.571519,5.37941 2.33422,8.22585 0.877599,3.27524 2.56227,4.48138 6.061131,4.48138 h 7.480689 l -4.8333,-12.70723 h 0.20929 c 4.29975,0 6.278711,-4.39504 6.654369,-5.72162 l 1.061432,-3.74757 c 1.171789,-4.137 -1.212051,-7.21093 -5.5118,-7.21093 z m 9.874851,4.7718 h 1.374068 4.807461 c 0.935752,0 1.33246,0.78846 1.07746,1.68879 l -0.983408,3.47317 c -0.254961,0.90033 -0.753042,1.68878 -1.68878,1.68878 h -6.527253 c 0,0 0.22352,-0.78846 0.478521,-1.68878 z"
         style="display:inline;opacity:1;fill:#024999;fill-opacity:1;stroke:none;stroke-width:0.79374999;stroke-linecap:butt;stroke-linejoin:miter;stroke-miterlimit:4;stroke-dasharray:none;stroke-dashoffset:1.71490002;stroke-opacity:1;paint-order:fill markers stroke" />
      <path
         sodipodi:nodetypes="cccccc"
         id="rect826-0-0-3-13"
         d="m -89.16191,294.78019 c -4.29976,0 -5.67638,1.40168 -6.84816,5.53868 l -6.75464,23.84867 h 11.33101 l 8.323856,-29.38735 c 0,0 -0.427939,0 -6.052066,0 z"
         style="display:inline;opacity:1;fill:#024999;fill-opacity:1;stroke:none;stroke-width:0.79374999;stroke-linecap:butt;stroke-linejoin:miter;stroke-miterlimit:4;stroke-dasharray:none;stroke-dashoffset:1.71490002;stroke-opacity:1;paint-order:fill markers stroke"
         inkscape:connector-curvature="0" />
      <path
         id="rect826-0-85-6-3"
         d="m 30.159848,294.78019 -4.42609,15.62644 -0.29817,1.05368 -3.599262,12.70723 h 3.92534 7.300841 l 3.59927,-12.70723 h 2.869591 c 0.404733,1.38266 1.571519,5.37941 2.334207,8.22585 0.877597,3.27524 2.562278,4.48138 6.061128,4.48138 H 55.4074 l -4.833302,-12.70723 h 0.209285 c 4.299744,0 6.278721,-4.39504 6.654377,-5.72161 l 1.061429,-3.74758 c 1.171786,-4.137 -1.212057,-7.21093 -5.5118,-7.21093 z m 9.874837,4.7718 h 1.374087 4.807453 c 0.935752,0 1.332442,0.78847 1.077463,1.68879 l -0.983404,3.47317 c -0.254979,0.90033 -0.753057,1.68879 -1.688782,1.68879 h -6.527271 c 0,0 0.22352,-0.78847 0.478525,-1.68879 z"
         style="display:inline;opacity:1;fill:#024999;fill-opacity:1;stroke:none;stroke-width:0.79374999;stroke-linecap:butt;stroke-linejoin:miter;stroke-miterlimit:4;stroke-dasharray:none;stroke-dashoffset:1.71490002;stroke-opacity:1;paint-order:fill markers stroke"
         inkscape:connector-curvature="0" />
      <path
         inkscape:connector-curvature="0"
         id="rect826-0-0-3-1-4"
         d="m -198.88926,294.78019 -8.32352,29.38735 h 11.33109 l 3.50748,-12.38215 h 6.26938 l -3.50696,12.38215 h 6.05183 c 4.29975,0 5.67636,-1.40168 6.84816,-5.53868 l 6.75463,-23.84867 h -11.3311 l -3.29178,11.62254 h -6.26991 l 3.29231,-11.62254 z"
         style="display:inline;opacity:1;fill:#024999;fill-opacity:1;stroke:none;stroke-width:0.79374999;stroke-linecap:butt;stroke-linejoin:miter;stroke-miterlimit:4;stroke-dasharray:none;stroke-dashoffset:1.71490002;stroke-opacity:1;paint-order:fill markers stroke"
         sodipodi:nodetypes="ccccccsccccccc" />
      <path
         sodipodi:nodetypes="sccccccccccccccss"
         inkscape:connector-curvature="0"
         id="rect826-0-8-5-6"
         d="m -161.51109,294.78019 c -4.29975,-5.3e-4 -5.22713,2.64943 -6.39892,6.78643 l -6.40133,22.60092 h 25.43617 l 1.35134,-4.7718 h -13.98003 l 1.94045,-6.85074 h 11.97757 2.00246 l 1.73943,-6.14227 h -13.97951 l 1.94045,-6.85074 h 11.97705 2.00246 l 1.35145,-4.7718 c -0.68095,0 -1.29231,0.003 -1.98338,0.003 z"
         style="display:inline;opacity:1;fill:#024999;fill-opacity:1;stroke:none;stroke-width:0.79374999;stroke-linecap:butt;stroke-linejoin:miter;stroke-miterlimit:4;stroke-dasharray:none;stroke-dashoffset:1.71490002;stroke-opacity:1;paint-order:fill markers stroke" />
      <path
         inkscape:connector-curvature="0"
         id="rect826-0-0-3-1-5-1"
         d="m -221.50958,294.78019 c -4.02206,0 -5.48622,1.22728 -6.61769,4.7718 h 7.76852 l -6.97167,24.61555 h 11.33058 l 6.97218,-24.61555 h 6.088 l 1.34255,-4.74028 c -0.21235,-0.0193 -0.42889,-0.0315 -0.65267,-0.0315 h -5.42602 -11.33161 z"
         style="display:inline;opacity:1;fill:#024999;fill-opacity:1;stroke:none;stroke-width:0.79374999;stroke-linecap:butt;stroke-linejoin:miter;stroke-miterlimit:4;stroke-dasharray:none;stroke-dashoffset:1.71490002;stroke-opacity:1;paint-order:fill markers stroke" />
    </g>
    <text
       xml:space="preserve"
       style="font-style:normal;font-variant:normal;font-weight:normal;font-stretch:normal;font-size:9.8777771px;line-height:1.25;font-family:'Adobe Gothic Std';-inkscape-font-specification:'Adobe Gothic Std';letter-spacing:-0.0079375px;word-spacing:0px;writing-mode:lr-tb;stroke-width:0.26458332"
       x="-50.667709"
       y="263.58493"
       id="text857"><tspan
         sodipodi:role="line"
         id="tspan855"
         x="-50.667709"
         y="273.51208"
         style="stroke-width:0.26458332" /></text>
    <g
       aria-label="B"
       transform="matrix(1.1982993,0,-0.30438136,0.83451606,0,88.11645)"
       style="font-style:normal;font-variant:normal;font-weight:normal;font-stretch:normal;font-size:15.17312813px;line-height:1.25;font-family:'Adobe Gothic Std';-inkscape-font-specification:'Adobe Gothic Std';letter-spacing:-0.01219268px;word-spacing:0px;writing-mode:lr-tb;opacity:1;fill:#231f20;fill-opacity:1;stroke-width:0.40642303"
       id="text4813-5">
      <path
         style="font-style:normal;font-variant:normal;font-weight:bold;font-stretch:normal;font-family:Eurocine;-inkscape-font-specification:'Eurocine Bold';fill:#231f20;fill-opacity:1;stroke-width:1.53608704"
         d="m -167.80078,931.01953 -12.21875,33.5 h 25.55078 c 5.22266,0 9.35024,-0.76545 12.48633,-2.39258 3.1361,-1.62715 5.28105,-3.92544 6.36328,-6.89257 l 0.29687,-0.8125 c 0.87277,-2.39285 0.556,-4.16395 -0.94921,-5.3125 -1.5052,-1.14859 -3.45982,-1.8193 -5.70899,-2.0586 l 0.0859,-0.23828 c 2.21761,-0.23939 4.31877,-0.90906 6.30078,-2.00977 1.89584,-1.05286 3.34794,-2.77708 4.2207,-5.16992 l 0.33203,-0.9082 c 0.9426,-2.58429 0.40459,-4.49889 -1.52929,-5.79102 -1.95133,-1.24428 -5.55628,-1.91406 -10.84766,-1.91406 z m 9.56836,6.84375 h 10.10156 c 1.64927,0 3.32535,0.23913 3.85547,0.66992 0.51264,0.47857 0.61083,1.14834 0.26172,2.10547 l -0.34571,0.94922 c -0.40147,1.10071 -1.04257,1.91401 -1.90429,2.39258 -0.86175,0.4786 -2.04837,0.7168 -3.62891,0.7168 h -10.83203 z m -4.5,12.54102 h 10.40039 c 1.698,0 3.42297,0.23913 3.96875,0.66992 0.52779,0.47856 0.62894,1.14834 0.26953,2.10547 l -0.35547,0.94922 c -0.41335,1.10071 -1.07375,1.91401 -1.96094,2.39257 -0.88721,0.47861 -2.10908,0.7168 -3.73632,0.7168 h -11.15235 z"
         transform="matrix(0.22079904,0,0.08053423,0.31705002,0,0)"
         id="path4836"
         inkscape:connector-curvature="0"
         sodipodi:nodetypes="ccsccccccccccsccsccccscccsccccscc" />
    </g>
    <g
       aria-label="L"
       style="font-style:normal;font-variant:normal;font-weight:normal;font-stretch:normal;font-size:12.66220379px;line-height:1.25;font-family:'Adobe Gothic Std';-inkscape-font-specification:'Adobe Gothic Std';letter-spacing:-0.01017499px;word-spacing:0px;writing-mode:lr-tb;opacity:1;fill:#231f20;fill-opacity:1;stroke-width:0.33916616"
       id="text4704"
       transform="translate(1.5640304,88.11645)">
      <path
         d="m 58.419684,253.16062 h -5.235702 l 2.445969,-6.82833 h -3.245635 l -3.175,8.86354 h 8.481337 z"
         style="font-style:normal;font-variant:normal;font-weight:bold;font-stretch:normal;font-family:Eurocine;-inkscape-font-specification:'Eurocine Bold';fill:#231f20;fill-opacity:1;stroke-width:0.33916616"
         id="path4706"
         inkscape:connector-curvature="0"
         sodipodi:nodetypes="ccccccc" />
    </g>
    <g
       aria-label="L"
       style="font-style:normal;font-variant:normal;font-weight:normal;font-stretch:normal;font-size:12.66220379px;line-height:1.25;font-family:'Adobe Gothic Std';-inkscape-font-specification:'Adobe Gothic Std';letter-spacing:-0.01017499px;word-spacing:0px;writing-mode:lr-tb;opacity:1;fill:#231f20;fill-opacity:1;stroke-width:0.33916616"
       id="text4704-2"
       transform="translate(-11.400553,88.11645)">
      <path
         d="m 58.419684,253.16062 h -5.235702 l 2.445969,-6.82833 h -3.245635 l -3.175,8.86354 h 8.481337 z"
         style="font-style:normal;font-variant:normal;font-weight:bold;font-stretch:normal;font-family:Eurocine;-inkscape-font-specification:'Eurocine Bold';fill:#231f20;fill-opacity:1;stroke-width:0.33916616"
         id="path4706-0"
         inkscape:connector-curvature="0"
         sodipodi:nodetypes="ccccccc" />
    </g>
    <path
       style="font-style:normal;font-variant:normal;font-weight:bold;font-stretch:normal;font-size:12.66220379px;line-height:1.25;font-family:Eurocine;-inkscape-font-specification:'Eurocine Bold';letter-spacing:-0.01017499px;word-spacing:0px;writing-mode:lr-tb;opacity:1;fill:#231f20;fill-opacity:1;stroke-width:0.33916616"
       d="m 28.130066,334.4487 -6.768579,8.86354 h 3.245796 l 1.150834,-1.50689 h 4.616772 l 0.07958,1.50689 h 3.245794 L 33.232075,334.4487 H 31.37534 29.986278 Z m 1.946134,1.7017 0.204121,3.86592 h -3.156397 z"
       id="path4706-0-4"
       inkscape:connector-curvature="0" />
    <path
       inkscape:connector-curvature="0"
       style="font-style:normal;font-variant:normal;font-weight:bold;font-stretch:normal;font-size:12.66220379px;line-height:1.25;font-family:Eurocine;-inkscape-font-specification:'Eurocine Bold';letter-spacing:-0.01017499px;word-spacing:0px;writing-mode:lr-tb;opacity:1;fill:#231f20;fill-opacity:1;stroke-width:0.33916616"
       d="m -57.248513,334.4487 -6.768579,8.86354 h 3.245796 l 1.150835,-1.50689 h 4.616771 l 0.07958,1.50689 h 3.245795 l -0.468188,-8.86354 h -1.856735 -1.389063 z m 1.946135,1.7017 0.20412,3.86592 h -3.156397 z"
       id="path4706-0-4-8" />
    <path
       d="m -8.7626531,343.31228 6.7683087,-8.86354 h -3.3365842 l -6.7683154,8.86354 z"
       style="font-style:normal;font-variant:normal;font-weight:bold;font-stretch:normal;font-size:12.66220379px;line-height:1.25;font-family:Eurocine;-inkscape-font-specification:'Eurocine Bold';letter-spacing:-0.01017499px;word-spacing:0px;writing-mode:lr-tb;opacity:1;fill:#231f20;fill-opacity:1;stroke-width:0.33916616"
       id="path4706-0-4-7"
       inkscape:connector-curvature="0"
       sodipodi:nodetypes="ccccc" />
    <path
       d="m -10.621847,343.31228 -0.387832,-8.86354 h -3.336585 l 0.387826,8.86354 z"
       style="font-style:normal;font-variant:normal;font-weight:bold;font-stretch:normal;font-size:12.66220379px;line-height:1.25;font-family:Eurocine;-inkscape-font-specification:'Eurocine Bold';letter-spacing:-0.01017499px;word-spacing:0px;writing-mode:lr-tb;opacity:1;fill:#231f20;fill-opacity:1;stroke-width:0.33916616"
       id="path4706-0-4-7-3"
       inkscape:connector-curvature="0"
       sodipodi:nodetypes="ccccc" />
    <g
       aria-label="O"
       transform="matrix(1.1631903,0,-0.29546329,0.85970456,-0.01653646,88.11645)"
       style="font-style:normal;font-variant:normal;font-weight:normal;font-stretch:normal;font-size:14.00812626px;line-height:1.25;font-family:'Adobe Gothic Std';-inkscape-font-specification:'Adobe Gothic Std';letter-spacing:-0.01125653px;word-spacing:0px;writing-mode:lr-tb;opacity:1;fill:#231f20;fill-opacity:1;stroke-width:0.37521765"
       id="text4813">
      <path
         d="m 48.129603,287.68 c -0.392228,0.46227 -0.574333,1.14867 -0.574333,2.07321 v 3.86624 c 0,0.92454 0.182105,1.62494 0.574333,2.08721 0.378219,0.46227 0.910528,0.77045 1.610934,0.91053 0.700407,0.15409 1.624943,0.22413 2.787617,0.22413 1.148667,0 2.073203,-0.07 2.773609,-0.22413 0.686399,-0.14008 1.218707,-0.44826 1.610935,-0.92454 0.378219,-0.46227 0.574333,-1.14866 0.574333,-2.0732 v -3.86624 c 0,-0.91053 -0.196114,-1.59693 -0.574333,-2.07321 -0.392228,-0.46226 -0.924536,-0.77044 -1.610935,-0.92453 -0.700406,-0.14008 -1.624942,-0.22413 -2.773609,-0.22413 -1.162674,0 -2.08721,0.084 -2.787617,0.22413 -0.700406,0.15409 -1.232715,0.46227 -1.610934,0.92453 z m 2.340012,5.74522 0.100227,-3.40188 c 0.01285,-0.43605 0.194105,-0.73633 0.52076,-0.92375 0.310062,-0.18743 0.796944,-0.28115 1.444053,-0.28115 0.630516,0 1.106,0.0938 1.394085,0.26776 0.287269,0.18742 0.420819,0.48878 0.407609,0.93714 l -0.100227,3.40188 c -0.01325,0.44981 -0.211513,0.74972 -0.521575,0.93715 -0.310062,0.18743 -0.79613,0.26775 -1.426647,0.26775 -0.647109,0 -1.12341,-0.0803 -1.410676,-0.26775 -0.303862,-0.18743 -0.420819,-0.48879 -0.407609,-0.93715 z"
         style="font-style:normal;font-variant:normal;font-weight:bold;font-stretch:normal;font-family:Eurocine;-inkscape-font-specification:'Eurocine Bold';fill:#231f20;fill-opacity:1;stroke-width:0.37521765"
         id="path4833"
         inkscape:connector-curvature="0"
         sodipodi:nodetypes="cssccsccssccsccsscscsscscs" />
    </g>
    <g
       aria-label="E"
       transform="matrix(1.1304035,0,-0.28713507,0.88463987,0,88.11645)"
       style="font-style:normal;font-variant:normal;font-weight:normal;font-stretch:normal;font-size:14.31338882px;line-height:1.25;font-family:'Adobe Gothic Std';-inkscape-font-specification:'Adobe Gothic Std';letter-spacing:-0.01150183px;word-spacing:0px;writing-mode:lr-tb;opacity:1;fill:#231f20;fill-opacity:1;stroke-width:0.3833943"
       id="text4813-5-0">
      <path
         style="font-style:normal;font-variant:normal;font-weight:bold;font-stretch:normal;font-family:Eurocine;-inkscape-font-specification:'Eurocine Bold';fill:#231f20;fill-opacity:1;stroke-width:1.44904935"
         d="m 7.5761719,931.01953 -11.5820313,33.5 H 30.179688 l 2.365234,-7.47265 H 10.941406 l 2.351563,-6.80469 h 20.132812 l 1.916016,-5.54492 H 15.210938 l 2.351562,-6.80274 h 21.042969 l 2.175781,-6.875 z"
         transform="matrix(0.23406096,0,0.07597115,0.29908592,0,0)"
         id="path4933"
         inkscape:connector-curvature="0" />
    </g>
    <path
       inkscape:connector-curvature="0"
       id="path975"
       style="font-style:normal;font-variant:normal;font-weight:500;font-stretch:normal;font-size:10.24442673px;line-height:1.25;font-family:Eurocine;-inkscape-font-specification:'Eurocine Medium';letter-spacing:1.95262504px;word-spacing:0px;writing-mode:lr-tb;opacity:1;fill:#231f20;fill-opacity:1;stroke-width:0.27440432"
       d="m -131.06268,280.93609 0.0923,-0.2592 h -1.83661 l -0.188,0.52799 c -0.21536,0.6048 -0.0809,1.056 0.41786,1.34399 0.49872,0.288 1.35482,0.432 2.57922,0.432 1.30093,0 2.30672,-0.1536 3.02422,-0.47999 0.70656,-0.3264 1.19041,-0.8256 1.4297,-1.49759 l 0.0855,-0.24 c 0.3424,-0.84354 0.30877,-1.59325 -0.54457,-1.79512 -1.25612,-0.29716 -2.83124,0.008 -3.6491,-0.21098 -0.23844,-0.0672 -0.41539,-0.1536 -0.50555,-0.2688 -0.0902,-0.1152 -0.0977,-0.2784 -0.019,-0.49919 l 0.041,-0.11521 c 0.0923,-0.2592 0.68466,-0.6339 1.0024,-0.75869 0.3034,-0.11521 0.77555,-0.18241 1.39868,-0.18241 0.63407,0 1.04743,0.0672 1.26194,0.20161 0.21451,0.1344 0.26366,0.36479 0.15085,0.68159 l -0.0786,0.2208 h 1.73822 l 0.14699,-0.41282 c 0.13674,-0.384 0.1368,-0.6912 0.004,-0.93119 -0.13319,-0.24 -0.41807,-0.4224 -0.87993,-0.5376 -0.46186,-0.1152 -1.11572,-0.1824 -1.97937,-0.1824 -1.21347,0 -2.17211,0.14401 -2.86158,0.4224 -0.68947,0.2784 -1.15214,0.7488 -1.38801,1.4112 l -0.0581,0.16319 c -0.23226,0.58949 -0.27892,1.46313 0.29929,1.64006 1.05284,0.32216 2.34617,0.26602 3.47623,0.34397 0.53648,0.037 0.82955,-0.0305 0.78733,0.52903 -0.0454,0.60125 -0.47578,1.02831 -0.99098,1.24053 -0.34645,0.144 -0.82953,0.2112 -1.45266,0.2112 -0.6778,0 -1.12052,-0.0768 -1.34666,-0.24 -0.22612,-0.1632 -0.27936,-0.4128 -0.1563,-0.7584 z"
       sodipodi:nodetypes="cccccscccscccccsccccccsscccssscsccc" />
    <path
       inkscape:connector-curvature="0"
       id="path977"
       style="font-style:normal;font-variant:normal;font-weight:500;font-stretch:normal;font-size:10.24442673px;line-height:1.25;font-family:Eurocine;-inkscape-font-specification:'Eurocine Medium';letter-spacing:1.95262504px;word-spacing:0px;writing-mode:lr-tb;opacity:1;fill:#231f20;fill-opacity:1;stroke-width:0.27440432"
       d="m -118.84742,276.21291 h -1.71635 l -0.41362,1.1616 h 1.71635 z m -0.66042,1.82399 h -1.69449 l -1.70918,4.79997 h 1.69449 z" />
    <path
       inkscape:connector-curvature="0"
       id="path979"
       style="font-style:normal;font-variant:normal;font-weight:500;font-stretch:normal;font-size:10.24442673px;line-height:1.25;font-family:Eurocine;-inkscape-font-specification:'Eurocine Medium';letter-spacing:1.95262504px;word-spacing:0px;writing-mode:lr-tb;opacity:1;fill:#231f20;fill-opacity:1;stroke-width:0.27440432"
       d="m -111.03518,278.2961 c -0.29717,-0.24 -0.75561,-0.3648 -1.36781,-0.3648 -0.49195,0 -0.95316,0.0672 -1.39458,0.2016 -0.44142,0.1344 -0.82749,0.2976 -1.1801,0.4896 l 8.1e-4,-0.5856 h -1.35559 l -1.70917,4.79997 h 1.70542 l 1.26137,-3.54238 c 0.55486,-0.26879 1.10902,-0.41279 1.65563,-0.41279 0.32796,0 0.56641,0.0672 0.71123,0.18239 0.1339,0.11521 0.15708,0.32641 0.0545,0.6144 l -1.12464,3.15838 h 1.69449 l 1.20668,-3.38878 c 0.18459,-0.5184 0.12454,-0.90239 -0.15827,-1.15199 z" />
    <path
       inkscape:connector-curvature="0"
       id="path981"
       style="font-style:normal;font-variant:normal;font-weight:500;font-stretch:normal;font-size:10.24442673px;line-height:1.25;font-family:Eurocine;-inkscape-font-specification:'Eurocine Medium';letter-spacing:1.95262504px;word-spacing:0px;writing-mode:lr-tb;opacity:1;fill:#231f20;fill-opacity:1;stroke-width:0.27440432"
       d="m -101.17847,278.0369 h -1.43211 l -0.32258,0.384 c -0.22136,-0.1152 -0.51172,-0.2208 -0.84923,-0.3168 -0.34093,-0.0864 -0.72832,-0.1344 -1.14375,-0.1344 -0.69966,0 -1.31189,0.1536 -1.8408,0.44159 -0.54325,0.29761 -0.92872,0.7968 -1.18168,1.5072 l -0.344,0.96606 c -0.23928,0.672 -0.18404,1.1616 0.18007,1.45919 0.3607,0.30721 0.91069,0.4512 1.64315,0.4512 0.40449,0 0.77893,-0.0384 1.13765,-0.12479 0.35533,-0.0768 0.65871,-0.192 0.92863,-0.336 l -0.23587,0.6624 c -0.10597,0.29759 -0.2864,0.52799 -0.53787,0.68159 -0.25147,0.1536 -0.63958,0.2304 -1.16433,0.2304 -0.48101,0 -0.81376,-0.048 -0.96951,-0.1632 -0.17011,-0.1056 -0.21039,-0.2688 -0.12834,-0.4992 l 0.0342,-0.096 h -1.57424 l -0.0752,0.21119 c -0.15041,0.4224 -0.0623,0.75839 0.28949,0.99839 0.34841,0.24961 1.07264,0.3648 2.17679,0.3648 1.10415,0 1.93161,-0.14399 2.50015,-0.4512 0.56512,-0.29759 0.95194,-0.73919 1.16046,-1.32479 z m -3.68712,3.84605 c -0.26444,0.0672 -0.50427,0.096 -0.74478,0.096 -0.43729,0 -0.74882,-0.0768 -0.92781,-0.2496 -0.1824,-0.16319 -0.21378,-0.4128 -0.0975,-0.73919 l 0.41237,-1.15807 c 0.13331,-0.37439 0.33835,-0.6432 0.61168,-0.7968 0.27334,-0.15359 0.62114,-0.23999 1.0147,-0.23999 0.56847,0 1.0194,0.11519 1.33092,0.34559 l -0.89094,2.50206 c -0.22003,0.096 -0.45851,0.1824 -0.70859,0.24 z"
       sodipodi:nodetypes="ccccsccccscccssccccccsccccsccccscccc" />
    <path
       inkscape:connector-curvature="0"
       id="path983"
       style="font-style:normal;font-variant:normal;font-weight:500;font-stretch:normal;font-size:10.24442673px;line-height:1.25;font-family:Eurocine;-inkscape-font-specification:'Eurocine Medium';letter-spacing:1.95262504px;word-spacing:0px;writing-mode:lr-tb;opacity:1;fill:#231f20;fill-opacity:1;stroke-width:0.27440432"
       d="m -93.262118,278.1233 c -0.396268,-0.1152 -0.984541,-0.1824 -1.771658,-0.1824 -0.721523,0 -1.32145,0.0576 -1.771045,0.1536 -0.463957,0.1056 -0.824751,0.2592 -1.07145,0.4608 -0.250119,0.2112 -0.43329,0.47999 -0.549514,0.80639 l -0.03076,0.0864 h 1.552369 c 0.08888,-0.24959 0.241288,-0.432 0.475665,-0.5376 0.234378,-0.10559 0.582855,-0.16319 1.042005,-0.16319 0.54661,0 0.883447,0.0672 1.039203,0.18239 0.141408,0.1248 0.17143,0.3168 0.07913,0.576 l -0.201682,0.5664 c -0.230919,-0.0576 -0.47621,-0.1056 -0.746773,-0.144 -0.270556,-0.0384 -0.613544,-0.0576 -1.028967,-0.0576 -0.896438,0 -1.593388,0.11519 -2.084015,0.32639 -0.490624,0.2112 -0.821397,0.55679 -0.992318,1.0368 l -0.08546,0.24 c -0.341835,0.95999 0.277782,1.43039 1.852015,1.43039 0.885505,0 1.639861,-0.15361 2.252128,-0.4608 l 0.03476,0.39359 h 1.50864 l 1.134894,-3.18718 c 0.143569,-0.40319 0.168914,-0.71999 0.08288,-0.96959 -0.08604,-0.2496 -0.327189,-0.432 -0.720037,-0.5568 z m -3.335843,3.96478 c -0.918303,0 -1.291318,-0.2112 -1.137492,-0.6432 l 0.06153,-0.1728 c 0.08204,-0.23039 0.241958,-0.40319 0.487272,-0.50879 0.245313,-0.1056 0.626586,-0.16321 1.140398,-0.16321 0.54661,0 0.988677,0.048 1.337111,0.14401 l -0.379437,1.06559 c -0.461927,0.192 -0.962775,0.2784 -1.509382,0.2784 z" />
    <path
       inkscape:connector-curvature="0"
       id="path987"
       style="font-style:normal;font-variant:normal;font-weight:500;font-stretch:normal;font-size:10.24442673px;line-height:1.25;font-family:Eurocine;-inkscape-font-specification:'Eurocine Medium';letter-spacing:1.95262504px;word-spacing:0px;writing-mode:lr-tb;opacity:1;fill:#231f20;fill-opacity:1;stroke-width:0.27440432"
       d="m -79.215485,278.5457 c -0.354668,0.2592 -0.615074,0.6528 -0.803082,1.18079 l -0.505918,1.4208 c -0.188009,0.52799 -0.207907,0.92159 -0.03783,1.18079 0.159144,0.2592 0.439931,0.42239 0.849869,0.49919 0.398994,0.0768 0.957226,0.1056 1.667817,0.1056 0.699659,0 1.278376,-0.0288 1.743022,-0.1056 0.453716,-0.0768 0.85071,-0.23999 1.205378,-0.49919 0.343736,-0.2592 0.615074,-0.6528 0.803083,-1.18079 l 0.505918,-1.4208 c 0.188008,-0.52799 0.196974,-0.92159 0.03783,-1.18079 -0.173494,-0.2496 -0.454281,-0.4128 -0.853287,-0.4896 -0.398993,-0.0768 -0.953809,-0.1152 -1.6644,-0.1152 -0.721523,0 -1.303677,0.0384 -1.75737,0.1152 -0.453717,0.0768 -0.850711,0.24 -1.19103,0.4896 z m 0.344468,2.71678 0.594793,-1.67039 c 0.116224,-0.32639 0.304167,-0.54719 0.574766,-0.6624 0.270594,-0.11519 0.651867,-0.1728 1.143815,-0.1728 0.481016,0 0.821256,0.0576 1.009823,0.1728 0.188553,0.11521 0.230185,0.33601 0.113961,0.6624 l -0.594793,1.67039 c -0.116224,0.3264 -0.3151,0.5472 -0.585695,0.6624 -0.270598,0.1152 -0.648451,0.1632 -1.129466,0.1632 -0.491948,0 -0.835625,-0.048 -1.024172,-0.1632 -0.188556,-0.1152 -0.219256,-0.336 -0.103032,-0.6624 z" />
    <path
       inkscape:connector-curvature="0"
       id="path989"
       style="font-style:normal;font-variant:normal;font-weight:500;font-stretch:normal;font-size:10.24442673px;line-height:1.25;font-family:Eurocine;-inkscape-font-specification:'Eurocine Medium';letter-spacing:1.95262504px;word-spacing:0px;writing-mode:lr-tb;opacity:1;fill:#231f20;fill-opacity:1;stroke-width:0.26701805"
       d="m -65.453925,278.2289 c -0.245809,-0.192 -0.617154,-0.288 -1.114029,-0.288 -0.776367,0 -1.533374,0.2496 -2.264549,0.72959 l 0.0027,-0.65279 h -1.283593 l -1.624875,4.81917 h 1.614843 l 1.168484,-3.46557 c 0.506649,-0.33601 1.061787,-0.50881 1.641473,-0.50881 0.248438,0 0.439292,0.048 0.558312,0.12481 0.119014,0.0768 0.139698,0.2304 0.06849,0.44159 l -0.0874,0.2592 h 1.293944 l 0.174788,-0.5184 c 0.145657,-0.432 0.0972,-0.74879 -0.148615,-0.94079 z" />
    <path
       inkscape:connector-curvature="0"
       id="path991"
       style="font-style:normal;font-variant:normal;font-weight:500;font-stretch:normal;font-size:10.24442673px;line-height:1.25;font-family:Eurocine;-inkscape-font-specification:'Eurocine Medium';letter-spacing:1.95262504px;word-spacing:0px;writing-mode:lr-tb;opacity:1;fill:#231f20;fill-opacity:1;stroke-width:0.27440432"
       d="m -57.270915,281.23369 h -1.563301 l -0.04786,0.13439 c -0.09571,0.2688 -0.295266,0.4608 -0.584308,0.5664 -0.292459,0.1152 -0.65938,0.16319 -1.107599,0.16319 -0.513812,0 -0.864985,-0.0576 -1.05765,-0.19199 -0.196068,-0.1248 -0.23428,-0.3552 -0.114639,-0.69119 l 0.191428,-0.5376 h 4.438462 l 0.31107,-0.8736 c 0.17092,-0.48 0.194914,-0.8544 0.08291,-1.12319 -0.111995,-0.26881 -0.375013,-0.4512 -0.793145,-0.5664 -0.418129,-0.1152 -1.009823,-0.1728 -1.775075,-0.1728 -0.666862,0 -1.230555,0.048 -1.680167,0.144 -0.46054,0.096 -0.853453,0.2784 -1.189676,0.5472 -0.336221,0.2688 -0.596627,0.66239 -0.777801,1.17119 l -0.423873,1.19039 c -0.191429,0.5376 -0.214747,0.9408 -0.06244,1.2192 0.137958,0.288 0.41942,0.48 0.822525,0.57599 0.403101,0.096 0.943551,0.144 1.621346,0.144 1.049488,0 1.874207,-0.1056 2.455709,-0.32639 0.581501,-0.2208 0.987446,-0.624 1.195965,-1.2096 z m -3.311954,-2.304 c 0.284944,-0.12479 0.658705,-0.192 1.13972,-0.192 0.448219,0 0.766595,0.0576 0.955162,0.1728 0.177621,0.11521 0.222673,0.3264 0.113283,0.63361 l -0.143569,0.40319 h -2.776772 l 0.123061,-0.3456 c 0.116224,-0.3264 0.304167,-0.5472 0.589115,-0.672 z" />
    <path
       inkscape:connector-curvature="0"
       id="path970"
       style="font-style:normal;font-variant:normal;font-weight:500;font-stretch:normal;font-size:10.24442673px;line-height:1.25;font-family:Eurocine;-inkscape-font-specification:'Eurocine Medium';letter-spacing:1.4605px;word-spacing:0px;writing-mode:lr-tb;opacity:1;fill:#231f20;fill-opacity:1;stroke-width:0.27440432"
       d="m -150.76117,278.5457 c -0.35467,0.2592 -0.61508,0.6528 -0.80308,1.18079 l -0.50592,1.4208 c -0.18801,0.52799 -0.20791,0.92159 -0.0378,1.18079 0.15914,0.2592 0.43993,0.42239 0.84987,0.49919 0.39899,0.0768 0.95722,0.1056 1.66781,0.1056 0.69966,0 1.27838,-0.0288 1.74303,-0.1056 0.45371,-0.0768 0.85071,-0.23999 1.20537,-0.49919 0.34374,-0.2592 0.61508,-0.6528 0.80309,-1.18079 l 0.50591,-1.4208 c 0.18801,-0.52799 0.19698,-0.92159 0.0378,-1.18079 -0.17349,-0.2496 -0.45428,-0.4128 -0.85328,-0.4896 -0.399,-0.0768 -0.95381,-0.1152 -1.6644,-0.1152 -0.72153,0 -1.30368,0.0384 -1.75737,0.1152 -0.45372,0.0768 -0.85071,0.24 -1.19103,0.4896 z m 0.34447,2.71678 0.59479,-1.67039 c 0.11622,-0.32639 0.30417,-0.54719 0.57476,-0.6624 0.2706,-0.11519 0.65187,-0.1728 1.14382,-0.1728 0.48102,0 0.82126,0.0576 1.00982,0.1728 0.18856,0.11521 0.23019,0.33601 0.11396,0.6624 l -0.59479,1.67039 c -0.11622,0.3264 -0.3151,0.5472 -0.58569,0.6624 -0.2706,0.1152 -0.64846,0.1632 -1.12947,0.1632 -0.49195,0 -0.83563,-0.048 -1.02417,-0.1632 -0.18856,-0.1152 -0.21926,-0.336 -0.10303,-0.6624 z" />
    <path
       inkscape:connector-curvature="0"
       id="path972"
       style="font-style:normal;font-variant:normal;font-weight:500;font-stretch:normal;font-size:10.24442673px;line-height:1.25;font-family:Eurocine;-inkscape-font-specification:'Eurocine Medium';letter-spacing:1.4605px;word-spacing:0px;writing-mode:lr-tb;opacity:1;fill:#231f20;fill-opacity:1;stroke-width:0.27440432"
       d="m -139.36437,277.02891 c 0.17221,-0.11521 0.41478,-0.1824 0.70995,-0.1824 0.28424,0 0.53637,0.0288 0.75226,0.0672 l 0.26663,-0.74879 c -0.42906,-0.1152 -0.87864,-0.1728 -1.35965,-0.1728 -0.59034,0 -1.1117,0.144 -1.54221,0.432 -0.44145,0.288 -0.74217,0.672 -0.91992,1.1712 l -0.15725,0.44159 h -0.97296 l -0.2974,0.8352 h 0.97297 l -1.41178,3.96477 h 1.69448 l 1.41178,-3.96477 h 1.61796 l 0.2974,-0.8352 h -1.61796 l 0.15724,-0.44159 c 0.0889,-0.24961 0.22285,-0.44161 0.39847,-0.5664 z" />
    <path
       inkscape:connector-curvature="0"
       id="path953"
       style="font-style:normal;font-variant:normal;font-weight:500;font-stretch:normal;font-size:10.24442673px;line-height:1.25;font-family:Eurocine;-inkscape-font-specification:'Eurocine Medium';letter-spacing:2.0240624px;word-spacing:0px;writing-mode:lr-tb;opacity:1;fill:#231f20;fill-opacity:1;stroke-width:0.27440432"
       d="m -215.01233,279.97609 c -0.17623,-0.2112 -0.45567,-0.3168 -0.8458,-0.3264 l 0.0102,-0.0288 c 0.4291,-0.0384 0.77279,-0.14399 1.03794,-0.336 0.26515,-0.192 0.48727,-0.5088 0.64794,-0.96 l 0.21877,-0.61439 c 0.14699,-0.4128 0.1867,-0.7392 0.11568,-0.9696 -0.071,-0.23039 -0.25683,-0.38399 -0.53967,-0.47999 -0.28285,-0.096 -0.69212,-0.144 -1.21686,-0.144 h -4.95227 l -2.39284,6.71996 h 1.85846 l 0.91612,-2.57278 h 2.50346 c 0.32797,0 0.55549,0.0672 0.69347,0.20159 0.12706,0.1344 0.14341,0.3648 0.0306,0.68161 l -0.60163,1.68958 h 1.84754 l 0.70213,-1.91039 c 0.15041,-0.42239 0.13203,-0.7392 -0.0333,-0.95039 z m -1.52896,-0.86399 c -0.23028,0.12479 -0.52409,0.18239 -0.88486,0.18239 h -2.38321 l 0.78281,-2.19838 h 2.3832 c 0.28425,0 0.49605,0.0192 0.63542,0.0576 0.13937,0.0384 0.22134,0.11521 0.24592,0.2304 0.0246,0.1152 0.0136,0.2688 -0.0616,0.48 l -0.19827,0.5568 c -0.12306,0.3456 -0.30349,0.57599 -0.51943,0.69119 z" />
    <path
       inkscape:connector-curvature="0"
       id="path955"
       style="font-style:normal;font-variant:normal;font-weight:500;font-stretch:normal;font-size:10.24442673px;line-height:1.25;font-family:Eurocine;-inkscape-font-specification:'Eurocine Medium';letter-spacing:2.0240624px;word-spacing:0px;writing-mode:lr-tb;opacity:1;fill:#231f20;fill-opacity:1;stroke-width:0.27440432"
       d="m -205.63452,281.23369 h -1.5633 l -0.0479,0.13439 c -0.0957,0.2688 -0.29526,0.4608 -0.5843,0.5664 -0.29246,0.1152 -0.65939,0.16319 -1.1076,0.16319 -0.51382,0 -0.86499,-0.0576 -1.05765,-0.19199 -0.19607,-0.1248 -0.23428,-0.3552 -0.11464,-0.69119 l 0.19143,-0.5376 h 4.43846 l 0.31107,-0.8736 c 0.17092,-0.48 0.19491,-0.8544 0.0829,-1.12319 -0.11201,-0.26881 -0.37502,-0.4512 -0.79315,-0.5664 -0.41813,-0.1152 -1.00983,-0.1728 -1.77508,-0.1728 -0.66686,0 -1.23055,0.048 -1.68017,0.144 -0.46053,0.096 -0.85344,0.2784 -1.18967,0.5472 -0.33622,0.2688 -0.59663,0.66239 -0.7778,1.17119 l -0.42388,1.19039 c -0.19143,0.5376 -0.21474,0.9408 -0.0624,1.2192 0.13796,0.288 0.41942,0.48 0.82253,0.57599 0.40311,0.096 0.94355,0.144 1.62135,0.144 1.04948,0 1.8742,-0.1056 2.4557,-0.32639 0.58151,-0.2208 0.98745,-0.624 1.19597,-1.2096 z m -3.31195,-2.304 c 0.28494,-0.12479 0.6587,-0.192 1.13972,-0.192 0.44822,0 0.76659,0.0576 0.95516,0.1728 0.17763,0.11521 0.22267,0.3264 0.11328,0.63361 l -0.14357,0.40319 h -2.77677 l 0.12306,-0.3456 c 0.11623,-0.3264 0.30417,-0.5472 0.58912,-0.672 z" />
    <path
       sodipodi:nodetypes="csccccccccscsscssscccscs"
       inkscape:connector-curvature="0"
       id="path957"
       style="font-style:normal;font-variant:normal;font-weight:500;font-stretch:normal;font-size:10.24442673px;line-height:1.25;font-family:Eurocine;-inkscape-font-specification:'Eurocine Medium';letter-spacing:2.0240624px;word-spacing:0px;writing-mode:lr-tb;opacity:1;fill:#231f20;fill-opacity:1;stroke-width:0.27440432"
       d="m -195.97346,278.3537 c -0.30468,-0.2496 -0.74877,-0.384 -1.36098,-0.384 -0.45914,0 -0.90943,0.0672 -1.35085,0.2016 -0.45234,0.1344 -0.84935,0.2976 -1.19102,0.4896 l 0.0363,-0.624 h -1.48678 l -2.41535,6.78316 h 1.70542 l 0.84633,-2.37679 c 0.16736,0.14401 0.38871,0.2592 0.6784,0.33601 0.28627,0.0864 0.62242,0.1248 1.01598,0.1248 0.73245,0 1.38842,-0.15361 1.95696,-0.46081 0.56854,-0.30719 0.98338,-0.79679 1.22267,-1.46878 l 0.46831,-1.3152 c 0.21878,-0.61439 0.17924,-1.05599 -0.12544,-1.30559 z m -1.634,1.48799 -0.47856,1.34399 c -0.21536,0.6048 -0.73676,0.9024 -1.55667,0.9024 -0.5466,0 -0.98318,-0.1248 -1.33159,-0.3744 l 0.82724,-2.32318 c 0.24806,-0.14401 0.53301,-0.26881 0.84391,-0.37441 0.29655,-0.096 0.6013,-0.1536 0.9074,-0.1536 0.37169,0 0.62857,0.0769 0.77067,0.23041 0.13115,0.15359 0.14067,0.40319 0.0176,0.74879 z" />
    <path
       inkscape:connector-curvature="0"
       id="path959"
       style="font-style:normal;font-variant:normal;font-weight:500;font-stretch:normal;font-size:10.24442673px;line-height:1.25;font-family:Eurocine;-inkscape-font-specification:'Eurocine Medium';letter-spacing:2.0240624px;word-spacing:0px;writing-mode:lr-tb;opacity:1;fill:#231f20;fill-opacity:1;stroke-width:0.27440432"
       d="m -186.13086,278.0369 h -1.69449 l -1.27505,3.58078 c -0.49336,0.2496 -0.99696,0.3744 -1.5217,0.3744 -0.39356,0 -0.6682,-0.0576 -0.80963,-0.1824 -0.15234,-0.1248 -0.16117,-0.3456 -0.0449,-0.672 l 1.10413,-3.10078 h -1.70542 l -1.14857,3.22558 c -0.39311,1.104 0.1117,1.65119 1.52195,1.65119 0.45915,0 0.89166,-0.048 1.30096,-0.15359 0.4093,-0.10561 0.76325,-0.24 1.08374,-0.40321 l -0.0179,0.48 h 1.49772 z" />
    <path
       inkscape:connector-curvature="0"
       id="path961"
       style="font-style:normal;font-variant:normal;font-weight:500;font-stretch:normal;font-size:10.24442673px;line-height:1.25;font-family:Eurocine;-inkscape-font-specification:'Eurocine Medium';letter-spacing:2.0240624px;word-spacing:0px;writing-mode:lr-tb;opacity:1;fill:#231f20;fill-opacity:1;stroke-width:0.27440432"
       d="m -177.54747,278.3441 c -0.31562,-0.2496 -0.78158,-0.384 -1.39377,-0.384 -0.45916,0 -0.89851,0.0672 -1.31464,0.192 -0.41613,0.1248 -0.79879,0.2784 -1.13704,0.4608 l 0.95714,-2.68799 h -1.70542 l -2.46122,6.91196 h 1.42118 l 0.34583,-0.48 c 0.14619,0.1728 0.37164,0.3072 0.67635,0.40321 0.29378,0.096 0.65931,0.144 1.0966,0.144 0.71059,0 1.35221,-0.144 1.93919,-0.44161 0.57605,-0.2976 0.98064,-0.75839 1.20625,-1.39199 l 0.5025,-1.41119 c 0.21877,-0.61439 0.16831,-1.05599 -0.13295,-1.31519 z m -1.6094,1.44959 -0.51275,1.44 c -0.10255,0.28799 -0.28707,0.49919 -0.55699,0.64319 -0.26992,0.144 -0.61089,0.2112 -1.0263,0.2112 -0.27331,0 -0.52544,-0.0288 -0.73859,-0.1056 -0.21318,-0.0768 -0.39761,-0.1728 -0.54245,-0.288 l 0.8375,-2.35199 c 0.60885,-0.29759 1.17735,-0.45119 1.70209,-0.45119 0.3717,0 0.63951,0.0768 0.78503,0.2208 0.1455,0.14399 0.16185,0.37439 0.0525,0.68159 z" />
    <path
       inkscape:connector-curvature="0"
       id="path963"
       style="font-style:normal;font-variant:normal;font-weight:500;font-stretch:normal;font-size:10.24442673px;line-height:1.25;font-family:Eurocine;-inkscape-font-specification:'Eurocine Medium';letter-spacing:2.0240624px;word-spacing:0px;writing-mode:lr-tb;opacity:1;fill:#231f20;fill-opacity:1;stroke-width:0.27440432"
       d="m -171.20836,275.92491 h -1.70542 l -2.46122,6.91196 h 1.70542 z" />
    <path
       inkscape:connector-curvature="0"
       id="path965"
       style="font-style:normal;font-variant:normal;font-weight:500;font-stretch:normal;font-size:10.24442673px;line-height:1.25;font-family:Eurocine;-inkscape-font-specification:'Eurocine Medium';letter-spacing:2.0240624px;word-spacing:0px;writing-mode:lr-tb;opacity:1;fill:#231f20;fill-opacity:1;stroke-width:0.27440432"
       d="m -166.36429,276.21291 h -1.71635 l -0.41362,1.1616 h 1.71635 z m -0.66041,1.82399 h -1.69449 l -1.70918,4.79997 h 1.69449 z" />
    <path
       inkscape:connector-curvature="0"
       id="path967"
       style="font-style:normal;font-variant:normal;font-weight:500;font-stretch:normal;font-size:10.24442673px;line-height:1.25;font-family:Eurocine;-inkscape-font-specification:'Eurocine Medium';letter-spacing:2.0240624px;word-spacing:0px;writing-mode:lr-tb;opacity:1;fill:#231f20;fill-opacity:1;stroke-width:0.27440432"
       d="m -158.88709,281.26248 0.10597,-0.2976 h -1.63983 l -0.12306,0.3456 c -0.1128,0.3168 -0.30826,0.528 -0.56109,0.624 -0.26718,0.1056 -0.62317,0.1536 -1.07138,0.1536 -0.49195,0 -0.83563,-0.048 -1.01324,-0.1632 -0.17763,-0.1152 -0.20833,-0.336 -0.0887,-0.672 l 0.58795,-1.65119 c 0.11623,-0.3264 0.30759,-0.55679 0.57818,-0.672 0.25967,-0.11519 0.64094,-0.1728 1.13289,-0.1728 0.43729,0 0.7591,0.048 0.94355,0.14401 0.18446,0.096 0.22883,0.2784 0.1297,0.5568 l -0.0786,0.22079 h 1.63982 l 0.10597,-0.2976 c 0.13674,-0.384 0.13338,-0.68159 -0.0101,-0.89279 -0.14343,-0.2112 -0.40919,-0.3552 -0.8082,-0.432 -0.39899,-0.0768 -0.94288,-0.1152 -1.64254,-0.1152 -0.71059,0 -1.29274,0.0384 -1.7355,0.1152 -0.45372,0.0768 -0.85071,0.24 -1.19445,0.4992 -0.35467,0.2592 -0.61507,0.65279 -0.79966,1.17119 l -0.50592,1.4208 c -0.18801,0.52799 -0.20791,0.92159 -0.0344,1.17119 0.15914,0.2592 0.43993,0.42239 0.83893,0.4992 0.3881,0.0768 0.94288,0.11519 1.64254,0.11519 0.66686,0 1.22715,-0.0384 1.6952,-0.1248 0.45712,-0.0864 0.84319,-0.24959 1.17258,-0.49919 0.32596,-0.24 0.56928,-0.5856 0.73336,-1.0464 z" />
    <path
       d="m -83.211047,278.3537 c -0.304679,-0.2496 -0.748772,-0.384 -1.360976,-0.384 -0.459145,0 -0.909432,0.0672 -1.350851,0.2016 -0.452346,0.13441 -0.849356,0.2976 -1.191028,0.4896 l 0.03635,-0.624 h -1.486773 l -2.415352,6.78316 h 1.705418 l 0.846328,-2.37679 c 0.167358,0.14401 0.388715,0.2592 0.678401,0.33601 0.28627,0.0864 0.622423,0.1248 1.015982,0.1248 0.732449,0 1.388422,-0.15361 1.956954,-0.46081 0.568542,-0.30719 0.983387,-0.79678 1.222672,-1.46878 l 0.468315,-1.3152 c 0.218774,-0.61439 0.179241,-1.05599 -0.125443,-1.30559 z m -1.633995,1.48799 -0.47857,1.34399 c -0.215357,0.6048 -0.736751,0.9024 -1.556662,0.9024 -0.546607,0 -0.983178,-0.1248 -1.331593,-0.3744 l 0.827242,-2.32318 c 0.248056,-0.144 0.533006,-0.26881 0.843912,-0.37441 0.296547,-0.096 0.601301,-0.15359 0.907397,-0.15359 0.371694,0 0.628574,0.0768 0.770673,0.2304 0.131148,0.1536 0.140662,0.40319 0.0176,0.74879 z"
       style="font-style:normal;font-variant:normal;font-weight:500;font-stretch:normal;font-size:10.24442673px;line-height:1.25;font-family:Eurocine;-inkscape-font-specification:'Eurocine Medium';letter-spacing:2.0240624px;word-spacing:0px;writing-mode:lr-tb;display:inline;opacity:1;fill:#231f20;fill-opacity:1;stroke-width:0.27440432"
       id="path957-0"
       inkscape:connector-curvature="0"
       sodipodi:nodetypes="csccccccccscsscssscccscs" />
    <path
       style="display:inline;opacity:1;fill:url(#linearGradient1524);fill-opacity:1;stroke:none;stroke-width:0.2;stroke-linecap:butt;stroke-linejoin:miter;stroke-miterlimit:4;stroke-dasharray:none;stroke-dashoffset:1.71490002;stroke-opacity:1;paint-order:fill markers stroke"
       d="m -192.2859,311.46031 379.95921,-0.22927 -14.84639,4.81848 -365.32797,-3.8296 z"
       id="rect1464-9"
       inkscape:connector-curvature="0"
       sodipodi:nodetypes="ccccc" />
  </g>
</svg>
