<svg width="1000" height="750" viewBox="0 0 1000 750" fill="none" xmlns="http://www.w3.org/2000/svg">
<rect x="5" y="5" width="990" height="740" fill="#C4C4C4" stroke="black" stroke-width="10"/>
<path d="M320.203 296.359V403H301.819V296.359H320.203ZM358.948 339.865V403H341.297V323.752H357.923L358.948 339.865ZM356.092 360.446L350.086 360.373C350.086 354.904 350.77 349.851 352.137 345.212C353.504 340.573 355.506 336.545 358.143 333.127C360.779 329.66 364.051 326.999 367.957 325.144C371.912 323.239 376.478 322.287 381.653 322.287C385.267 322.287 388.562 322.824 391.541 323.898C394.568 324.924 397.181 326.56 399.378 328.806C401.624 331.052 403.333 333.933 404.505 337.448C405.726 340.964 406.336 345.212 406.336 350.192V403H388.685V351.73C388.685 347.873 388.099 344.846 386.927 342.648C385.804 340.451 384.168 338.889 382.02 337.961C379.92 336.984 377.405 336.496 374.476 336.496C371.155 336.496 368.323 337.131 365.979 338.4C363.685 339.67 361.805 341.403 360.34 343.601C358.875 345.798 357.801 348.337 357.117 351.218C356.434 354.099 356.092 357.175 356.092 360.446ZM405.237 355.759L396.961 357.59C396.961 352.805 397.62 348.288 398.938 344.04C400.306 339.743 402.283 335.983 404.871 332.761C407.508 329.489 410.755 326.926 414.612 325.07C418.47 323.215 422.889 322.287 427.869 322.287C431.922 322.287 435.535 322.849 438.709 323.972C441.932 325.046 444.666 326.755 446.912 329.099C449.158 331.442 450.867 334.494 452.039 338.254C453.211 341.965 453.797 346.457 453.797 351.73V403H436.072V351.657C436.072 347.653 435.486 344.553 434.314 342.355C433.191 340.158 431.58 338.645 429.48 337.814C427.381 336.936 424.866 336.496 421.937 336.496C419.202 336.496 416.785 337.009 414.686 338.034C412.635 339.011 410.901 340.402 409.485 342.209C408.069 343.967 406.995 345.993 406.263 348.288C405.579 350.583 405.237 353.073 405.237 355.759ZM516.639 387.106V349.313C516.639 346.481 516.126 344.04 515.101 341.989C514.075 339.938 512.513 338.352 510.413 337.229C508.362 336.105 505.774 335.544 502.649 335.544C499.769 335.544 497.278 336.032 495.179 337.009C493.079 337.985 491.443 339.304 490.271 340.964C489.1 342.624 488.514 344.504 488.514 346.604H470.936C470.936 343.479 471.692 340.451 473.206 337.521C474.72 334.592 476.917 331.979 479.798 329.685C482.679 327.39 486.121 325.583 490.125 324.265C494.129 322.946 498.621 322.287 503.602 322.287C509.559 322.287 514.832 323.288 519.422 325.29C524.061 327.292 527.698 330.319 530.335 334.372C533.021 338.376 534.363 343.405 534.363 349.46V384.689C534.363 388.303 534.607 391.55 535.096 394.431C535.633 397.263 536.39 399.729 537.366 401.828V403H519.275C518.445 401.096 517.786 398.679 517.298 395.749C516.858 392.771 516.639 389.89 516.639 387.106ZM519.202 354.807L519.349 365.72H506.678C503.406 365.72 500.525 366.037 498.035 366.672C495.545 367.258 493.47 368.137 491.81 369.309C490.149 370.48 488.904 371.896 488.074 373.557C487.244 375.217 486.829 377.097 486.829 379.196C486.829 381.296 487.317 383.225 488.294 384.982C489.271 386.691 490.687 388.034 492.542 389.011C494.446 389.987 496.741 390.476 499.427 390.476C503.04 390.476 506.189 389.743 508.875 388.278C511.609 386.765 513.758 384.934 515.32 382.785C516.883 380.588 517.713 378.513 517.811 376.56L523.523 384.396C522.938 386.398 521.937 388.547 520.521 390.842C519.104 393.137 517.249 395.334 514.954 397.434C512.708 399.484 509.998 401.169 506.824 402.487C503.699 403.806 500.086 404.465 495.984 404.465C490.809 404.465 486.194 403.439 482.142 401.389C478.089 399.289 474.915 396.481 472.62 392.966C470.325 389.401 469.178 385.373 469.178 380.881C469.178 376.682 469.959 372.971 471.521 369.748C473.133 366.477 475.477 363.742 478.553 361.545C481.678 359.348 485.486 357.688 489.979 356.564C494.471 355.393 499.598 354.807 505.359 354.807H519.202ZM603.577 323.752H619.617V400.803C619.617 407.932 618.104 413.986 615.076 418.967C612.049 423.947 607.825 427.731 602.405 430.319C596.985 432.956 590.711 434.274 583.582 434.274C580.555 434.274 577.186 433.835 573.475 432.956C569.812 432.077 566.248 430.661 562.781 428.708C559.363 426.804 556.507 424.289 554.212 421.164L562.488 410.764C565.32 414.133 568.445 416.599 571.863 418.161C575.281 419.724 578.87 420.505 582.63 420.505C586.683 420.505 590.125 419.748 592.957 418.234C595.838 416.77 598.06 414.597 599.622 411.716C601.185 408.835 601.966 405.319 601.966 401.169V341.696L603.577 323.752ZM549.744 364.255V362.717C549.744 356.711 550.477 351.242 551.941 346.311C553.406 341.33 555.506 337.058 558.24 333.493C560.975 329.88 564.295 327.121 568.201 325.217C572.107 323.264 576.526 322.287 581.458 322.287C586.585 322.287 590.955 323.215 594.568 325.07C598.23 326.926 601.282 329.587 603.724 333.054C606.165 336.472 608.069 340.573 609.437 345.358C610.853 350.095 611.902 355.368 612.586 361.179V366.086C611.951 371.75 610.877 376.926 609.363 381.613C607.85 386.301 605.848 390.354 603.357 393.771C600.867 397.189 597.791 399.826 594.129 401.682C590.516 403.537 586.243 404.465 581.312 404.465C576.478 404.465 572.107 403.464 568.201 401.462C564.344 399.46 561.023 396.652 558.24 393.039C555.506 389.426 553.406 385.178 551.941 380.295C550.477 375.363 549.744 370.017 549.744 364.255ZM567.396 362.717V364.255C567.396 367.868 567.737 371.237 568.421 374.362C569.153 377.487 570.252 380.246 571.717 382.639C573.23 384.982 575.135 386.838 577.43 388.205C579.773 389.523 582.532 390.183 585.706 390.183C589.856 390.183 593.25 389.304 595.887 387.546C598.572 385.788 600.623 383.42 602.039 380.441C603.504 377.414 604.529 374.045 605.115 370.334V357.077C604.822 354.196 604.212 351.511 603.284 349.021C602.405 346.53 601.209 344.357 599.695 342.502C598.182 340.598 596.277 339.133 593.982 338.107C591.688 337.033 588.978 336.496 585.853 336.496C582.679 336.496 579.92 337.18 577.576 338.547C575.232 339.914 573.304 341.794 571.79 344.187C570.325 346.579 569.227 349.362 568.494 352.536C567.762 355.71 567.396 359.104 567.396 362.717ZM672.864 404.465C667.005 404.465 661.707 403.513 656.971 401.608C652.283 399.655 648.279 396.945 644.959 393.479C641.688 390.012 639.173 385.935 637.415 381.247C635.657 376.56 634.778 371.506 634.778 366.086V363.156C634.778 356.955 635.682 351.34 637.488 346.311C639.295 341.281 641.81 336.984 645.032 333.42C648.255 329.807 652.063 327.048 656.458 325.144C660.853 323.239 665.613 322.287 670.74 322.287C676.404 322.287 681.36 323.239 685.608 325.144C689.856 327.048 693.372 329.733 696.155 333.2C698.987 336.618 701.087 340.695 702.454 345.432C703.87 350.168 704.578 355.393 704.578 361.105V368.649H643.348V355.979H687.146V354.587C687.049 351.413 686.414 348.435 685.242 345.651C684.119 342.868 682.386 340.622 680.042 338.913C677.698 337.204 674.573 336.35 670.667 336.35C667.737 336.35 665.125 336.984 662.83 338.254C660.584 339.475 658.704 341.257 657.19 343.601C655.677 345.944 654.505 348.776 653.675 352.097C652.894 355.368 652.503 359.055 652.503 363.156V366.086C652.503 369.553 652.967 372.775 653.895 375.754C654.871 378.684 656.287 381.247 658.143 383.444C659.998 385.642 662.244 387.375 664.881 388.645C667.518 389.865 670.521 390.476 673.89 390.476C678.138 390.476 681.922 389.621 685.242 387.912C688.562 386.203 691.443 383.786 693.885 380.661L703.187 389.67C701.478 392.16 699.256 394.553 696.521 396.848C693.787 399.094 690.442 400.925 686.487 402.341C682.581 403.757 678.04 404.465 672.864 404.465Z" fill="white"/>
</svg>
